<svg width="200" height="200" xmlns="http://www.w3.org/2000/svg">
    <!-- Created with Method Draw - http://github.com/duopixel/Method-Draw/ -->
    <g>
        <title>background</title>
        <rect fill-opacity="0" id="canvas_background" height="202" width="202" y="-1" x="-1"/>
        <g display="none" overflow="visible" y="0" x="0" height="100%" width="100%" id="canvasGrid">
            <rect fill="url(#gridpattern)" stroke-width="0" y="0" x="0" height="100%" width="100%"/>
        </g>
    </g>
    <g>
        <title>Layer 1</title>
        <path id="svg_21"
              d="m149.407944,123.500001l24.052315,-4.556763l24.039742,-4.558637l-24.052476,-4.561857l-24.039588,-4.558354l0,5.06943c-5.892376,0 -12.739463,0 -15.033369,0c-10.936845,0.101223 -24.43578,-2.727097 -38.79693,-6.373123c-5.353603,-1.278399 -10.754712,-2.684854 -16.47913,-3.954824c5.724418,-1.271527 11.11779,-2.676365 16.47913,-3.954723c14.36115,-3.640987 27.860078,-6.474389 38.782826,-6.371375l15.047466,-0.001704l0,5.076224l24.039588,-4.560174l24.052476,-4.563681l-24.052476,-4.568569l-24.039588,-4.561876l0,5.072981l-15.039736,0c-22.338314,0.102743 -39.032971,4.462387 -53.641701,8.005592c-14.502319,3.738858 -27.538042,6.553569 -35.098318,6.371432l-43.128181,0l0,8.098431l43.142335,0c7.55379,-0.183923 20.596055,2.632618 35.096983,6.37137c14.602335,3.544999 31.290583,7.901022 53.635264,8.005651l15.033369,0l0,5.074545l0,0l0,0.000002z"
              fill-opacity="null" stroke-opacity="null" stroke-width="1.5" fill="white"/>
    </g>
</svg>
