<svg width="200" height="200" xmlns="http://www.w3.org/2000/svg">
    <!-- Created with Method Draw - http://github.com/duopixel/Method-Draw/ -->
    <g>
        <title>background</title>
        <rect fill-opacity="0" id="canvas_background" height="202" width="202" y="-1" x="-1"/>
        <g display="none" overflow="visible" y="0" x="0" height="100%" width="100%" id="canvasGrid">
            <rect fill="url(#gridpattern)" stroke-width="0" y="0" x="0" height="100%" width="100%"/>
        </g>
    </g>
    <g>
        <title>Layer 1</title>
        <path id="svg_1"
              d="m59.662179,93.565691c2.287167,1.001692 4.561759,2.300762 6.895578,3.76833c0.336609,-0.22462 0.654305,-0.442373 0.991024,-0.671741c3.377859,-2.300848 7.205734,-4.905977 11.495155,-7.4268c0.68084,-0.409543 1.395798,-0.753668 2.089263,-1.13992c-3.218991,-1.753093 -6.769512,-3.435988 -11.052659,-4.882518c-6.623234,-2.265717 -15.276481,-3.840956 -24.895511,-3.808255l-41.685008,0l0,11.057213l41.692583,0c5.797367,0.051485 9.472771,0.922119 14.469589,3.10369l-0.000014,0zm90.32604,9.048934l0,6.921165c-6.094919,-0.00705 -16.19559,-0.00705 -19.057745,-0.00705c-8.461424,-0.091234 -14.014331,-1.343495 -19.791567,-3.522598c-2.499032,-0.952589 -4.892072,-2.146414 -7.2524,-3.475845c-1.771442,1.153891 -3.556851,2.345319 -5.373714,3.583426c-2.207781,1.498103 -4.482345,3.038259 -6.855276,4.552609c-0.588851,0.372171 -1.249498,0.75596 -1.871131,1.132905c9.617888,4.688185 22.958828,8.73038 40.997838,8.779583l19.203996,0l0,6.921178l23.236292,-6.214251l23.27548,-6.228383l-23.27548,-6.221339l-23.236292,-6.221397l0,-0.000003zm-38.849319,-8.627679c5.777237,-2.183797 11.330144,-3.43132 19.791567,-3.52264c2.862162,0 12.962827,0 19.057745,-0.004658l0,6.921297l23.236292,-6.216745l23.27548,-6.221397l-23.27548,-6.226165l-23.236292,-6.216633l0,6.914186l-19.203996,0c-21.767299,0.060943 -36.773961,5.921852 -46.544249,11.726528c-9.954517,5.865737 -17.174128,12.052038 -24.577794,15.284386c-5.004379,2.174425 -8.672216,3.054436 -14.469589,3.103636l-41.692583,0l0,11.05712l41.692583,0c9.617826,0.032778 18.27099,-1.540079 24.894238,-3.81048c6.690147,-2.253989 11.714608,-5.065108 16.222147,-7.894933c8.865036,-5.699486 16.222091,-11.611839 24.829925,-14.893498l0.000007,-0.000003z"
              stroke-width="1.5" fill="white"/>
    </g>
</svg>
