<svg width="200" height="200" xmlns="http://www.w3.org/2000/svg">
    <!-- Created with Method Draw - http://github.com/duopixel/Method-Draw/ -->
    <g>
        <title>background</title>
        <rect fill-opacity="0" id="canvas_background" height="202" width="202" y="-1" x="-1"/>
        <g display="none" overflow="visible" y="0" x="0" height="100%" width="100%" id="canvasGrid">
            <rect fill="url(#gridpattern)" stroke-width="0" y="0" x="0" height="100%" width="100%"/>
        </g>
    </g>
    <g>
        <title>Layer 1</title>
        <path id="svg_2"
              d="m100.235689,22.507093c8.452112,0.01019 16.526573,1.405639 24.173464,3.736889l-6.051963,9.980676l42.959116,0l-10.742526,-17.739981l-10.734326,-17.734677l-5.650635,9.345038c-10.590188,-3.691888 -22.006811,-5.758074 -33.945432,-5.758074c-54.952588,0 -99.493387,42.473757 -99.493387,94.872627c0,21.747253 7.757001,41.728217 20.666355,57.737038l15.128484,-11.07587c-10.440726,-12.937328 -16.718264,-29.08131 -16.752324,-46.655932c0.076042,-42.363794 36.020391,-76.642777 80.443166,-76.707732l0.000008,0zm78.83752,18.985466l-15.128452,11.081174c10.438096,12.932404 16.715666,29.066211 16.744387,46.646054c-0.07605,42.363444 -36.020391,76.637526 -80.445748,76.707337c-7.872434,-0.009704 -15.403931,-1.230295 -22.583859,-3.271572l5.695095,-9.390327l-42.958925,0l10.734581,17.730163l10.742327,17.754616l5.989006,-9.910348c10.15731,3.371695 21.028148,5.25275 32.381775,5.257643c54.960518,-0.009765 99.493674,-42.48356 99.506584,-94.882467c-0.01291,-21.747207 -7.775425,-41.723293 -20.676771,-57.722266l0,-0.000008z"
              fill-opacity="null" stroke-opacity="null" stroke-width="1.5" fill="white"/>
    </g>
</svg>
