<svg width="200" height="200" xmlns="http://www.w3.org/2000/svg">
    <!-- Created with Method Draw - http://github.com/duopixel/Method-Draw/ -->
    <g>
        <title>background</title>
        <rect fill-opacity="0" id="canvas_background" height="202" width="202" y="-1" x="-1"/>
        <g display="none" overflow="visible" y="0" x="0" height="100%" width="100%" id="canvasGrid">
            <rect fill="url(#gridpattern)" stroke-width="0" y="0" x="0" height="100%" width="100%"/>
        </g>
    </g>
    <g>
        <title>Layer 1</title>
        <path id="svg_20"
              d="m175.025346,91.83579l-24.532479,-6.439411l0,7.165169l-44.027043,0c-7.708839,0.261738 -21.018399,-3.712279 -35.816745,-8.985503c-14.901763,-5.002026 -31.932287,-11.139183 -54.73526,-11.303377l-15.34163,0l0,11.422289l15.34163,0c11.167767,-0.147529 24.938334,3.843165 39.599174,8.992765c5.464743,1.798941 10.976636,3.78359 16.817159,5.575472c-5.840523,1.794235 -11.345865,3.781259 -16.817159,5.580238c-14.660833,5.135266 -28.431407,9.135468 -39.584747,8.990285l-15.356051,0l0,11.43895l15.348168,0c22.754527,-0.145071 39.791637,-6.298858 54.741826,-11.293768c14.799678,-5.273323 28.102728,-9.249658 35.818077,-8.99267l44.012615,0l0,7.165102l24.532479,-6.432167l24.546823,-6.436902l-24.546823,-6.44647l-0.000014,-0.000003z"
              fill-opacity="null" stroke-opacity="null" stroke-width="1.5" stroke="#000" fill="white"/>
    </g>
</svg>
