<svg width="200" height="200" xmlns="http://www.w3.org/2000/svg">
    <!-- Created with Method Draw - http://github.com/duopixel/Method-Draw/ -->
    <g>
        <title>background</title>
        <rect fill-opacity="0" id="canvas_background" height="202" width="202" y="-1" x="-1"/>
        <g display="none" overflow="visible" y="0" x="0" height="100%" width="100%" id="canvasGrid">
            <rect fill="url(#gridpattern)" stroke-width="0" y="0" x="0" height="100%" width="100%"/>
        </g>
    </g>
    <g>
        <title>Layer 1</title>
        <path id="svg_22"
              d="m172.12571,124.762799l22.874283,-7.242764l-22.874283,-7.23999l-22.879179,-7.237268l0,8.051355c-6.001637,-0.005425 -15.94766,-0.005425 -18.767157,-0.005425c-8.330771,-0.108947 -13.798562,-1.538377 -19.488613,-4.097862c-8.480994,-3.820126 -15.719176,-10.695287 -24.448511,-17.319893c-4.439741,-3.294577 -9.386068,-6.562002 -15.973722,-9.189491c-6.521821,-2.638451 -15.042579,-4.468191 -24.514317,-4.432788l-41.054211,0l0,12.862641l41.054211,0c5.708628,0.057179 9.321495,1.078209 14.249216,3.610479c7.290354,3.765681 14.398213,10.964801 24.20147,17.785511c9.60704,6.755307 24.390177,13.576006 45.831669,13.641354l18.909964,0l0,8.051332l22.879179,-7.237193zm-96.772295,-48.714122c0.25951,0.100763 0.533927,0.187853 0.787158,0.291368c7.824268,3.120322 13.4745,6.948656 17.946555,10.278666c1.028002,0.778683 1.939314,1.527481 2.915165,2.292607l52.244237,0l0,8.054106l22.879179,-7.237305l22.874283,-7.239949l-22.874283,-7.242715l-22.879179,-7.245456l0,8.048677l-73.893115,0z"
              fill-opacity="null" stroke-opacity="null" stroke-width="1.5" fill="white"/>
    </g>
</svg>
