<svg width="200" height="200" xmlns="http://www.w3.org/2000/svg">
    <!-- Created with Method Draw - http://github.com/duopixel/Method-Draw/ -->
    <g>
        <title>background</title>
        <rect fill-opacity="0" id="canvas_background" height="202" width="202" y="-1" x="-1"/>
        <g display="none" overflow="visible" y="0" x="0" height="100%" width="100%" id="canvasGrid">
            <rect fill="url(#gridpattern)" stroke-width="0" y="0" x="0" height="100%" width="100%"/>
        </g>
    </g>
    <g>
        <title>Layer 1</title>
        <path id="svg_1"
              d="m1.000015,100.000001l0,0c0,-54.67619 44.323809,-99.000008 98.999986,-99.000008l0,0c26.256418,0 51.437463,10.430322 70.003548,28.996425c18.566105,18.566109 28.996438,43.74714 28.996438,70.003584l0,0c0,54.676183 -44.323809,99.000008 -98.999986,99.000008l0,0c-54.676171,0 -98.999986,-44.323825 -98.999986,-99.000008zm49.499993,0l0,0c0,27.338088 22.161918,49.500004 49.499993,49.500004c27.338095,0 49.499993,-22.161916 49.499993,-49.500004c0,-27.338088 -22.161911,-49.500004 -49.499993,-49.500004l0,0c-27.338075,0 -49.499993,22.161923 -49.499993,49.500004z"
              fill="white"/>
    </g>
</svg>
