<svg width="200" height="200" xmlns="http://www.w3.org/2000/svg">
    <!-- Created with Method Draw - http://github.com/duopixel/Method-Draw/ -->
    <g>
        <title>background</title>
        <rect fill-opacity="0" id="canvas_background" height="202" width="202" y="-1" x="-1"/>
        <g display="none" overflow="visible" y="0" x="0" height="100%" width="100%" id="canvasGrid">
            <rect fill="url(#gridpattern)" stroke-width="0" y="0" x="0" height="100%" width="100%"/>
        </g>
    </g>
    <g>
        <title>Layer 1</title>
        <path id="svg_36"
              d="m91.391753,94.908822c0.522097,0.448673 1.626996,-0.4011 2.163786,-0.506098c-0.604166,-1.019853 1.671511,-5.988391 0.886095,-7.792747c-0.241667,-4.079413 -6.35878,-13.287842 -7.129165,-14.356397c0.293867,-0.716596 3.587202,-0.049769 3.488892,0.053032c-1.37431,1.437523 4.63763,9.68754 5.331938,14.460266c1.279335,-0.091944 2.959787,-0.714337 3.705571,0.313801c0.696435,-0.988159 6.070085,-8.538338 6.363855,-15.06245c0.042098,-0.934939 2.958627,-0.343236 2.409996,0.226627c-0.879425,4.061966 -7.081025,15.466625 -7.565518,15.881847c0.563857,3.55637 0.335578,3.800131 3.937136,6.565471c1.620858,-4.942053 5.074419,-9.137133 8.237544,-13.312444c3.571687,-4.688062 5.96873,-9.179182 9.903159,-14.059479c5.17935,-6.19939 11.793958,-11.856093 17.852153,-15.232844c4.214424,-2.349052 11.275632,-4.362839 12.358105,-4.494635c2.005349,-0.252798 3.818816,-0.207925 6.1958,0.250664c3.507307,0.676618 6.931916,1.054497 10.614239,3.298928c3.462454,2.880568 2.265528,6.490786 1.61994,9.872432c-5.33276,7.636223 -10.794667,16.78164 -12.51485,26.137869c-0.578356,3.464426 -1.618248,9.434303 -4.072517,13.184288c-3.945642,5.768228 -8.774527,5.554906 -13.311576,6.336835c2.764521,1.027824 5.762927,4.383863 8.452918,7.756283c4.19625,5.30443 6.240943,10.744171 5.15731,16.666287c-0.230695,1.24215 -4.231727,10.663712 -6.188695,13.619969c-7.427768,11.256859 -17.540065,18.891073 -25.690368,17.652061c-2.935041,-0.446162 -11.030872,-8.448089 -12.48643,-10.809253c-3.613351,-5.861427 -6.581306,-12.931427 -6.7033,-19.104019c-0.449162,-0.582729 -0.99847,-0.625782 -0.756271,-1.405389c-0.45008,1.785214 -1.879296,7.598943 -3.995184,11.274306c-3.058967,5.31353 -5.85911,-2.629402 -6.992526,-9.070795c-0.388552,-2.208092 -0.103385,-2.590365 -0.556558,-3.910714c-2.142858,1.055752 -1.014565,4.116944 -1.855516,6.589822c-0.712965,2.153428 -3.905912,8.730823 -4.787657,10.23029c-2.818558,4.793123 -9.147419,12.046257 -13.737296,13.78666c-4.259954,1.615322 -7.870453,1.388695 -11.294143,-0.891446c-4.415974,-2.940943 -10.639372,-9.771199 -14.468047,-15.324913c-4.846865,-6.871866 -9.083136,-17.196548 -5.051219,-24.469138c2.573459,-4.537688 7.41757,-11.300038 12.15119,-12.96174c-3.341476,-0.531391 -10.734444,-3.390997 -13.483836,-11.33374c-0.88247,-2.518253 -1.209831,-6.433674 -1.434291,-9.235102c-0.365207,-4.625051 -1.990366,-9.938832 -3.339446,-14.492901c-1.084503,-4.163512 -3.001306,-9.493737 -5.007332,-14.048872c-2.102306,-4.780131 -3.825872,-12.684277 -0.167233,-16.576477c1.27803,-1.359825 5.23532,-2.945839 6.062352,-3.058932c2.890961,-0.400849 6.829643,1.442606 9.753471,2.548566c1.915546,0.730592 10.320469,4.62982 12.644866,6.776784c15.323547,14.153807 26.219714,31.784279 33.29866,48.027437z"
              fill-opacity="null" stroke-opacity="null" stroke-width="1.5" stroke="#000" fill="white"/>
    </g>
</svg>
