<svg width="200" height="200" xmlns="http://www.w3.org/2000/svg">
    <!-- Created with Method Draw - http://github.com/duopixel/Method-Draw/ -->
    <g>
        <title>background</title>
        <rect fill-opacity="0" id="canvas_background" height="202" width="202" y="-1" x="-1"/>
        <g display="none" overflow="visible" y="0" x="0" height="100%" width="100%" id="canvasGrid">
            <rect fill="url(#gridpattern)" stroke-width="0" y="0" x="0" height="100%" width="100%"/>
        </g>
    </g>
    <g>
        <title>Layer 1</title>
        <path id="svg_39"
              d="m89.816867,167.816881c-1.475469,-3.663666 -28.163093,0.916576 -14.197607,-3.828595c5.410077,-1.023543 16.518877,0.259863 5.474173,-2.507577c12.577099,3.471588 18.151136,-8.69395 18.96308,-16.895638c-11.70647,-2.984181 -13.733832,-14.130098 -26.070203,-17.131786c-9.39934,-6.028577 -23.17892,-5.844224 -29.144848,-15.139312c-5.664148,-8.276756 -2.465229,-18.35152 -1.527575,-27.292267c2.232067,-9.438688 6.763553,-18.99191 5.867422,-28.58297c-9.135598,4.303172 -12.475671,-5.316627 -12.684011,-8.321404c-6.724535,1.406912 -10.984364,1.469263 -3.671813,-3.424731c3.267792,-3.707554 4.889631,-11.805704 10.11005,-10.590137c1.377286,-4.902038 5.032604,2.228762 9.074101,-2.102465c2.476513,1.529816 7.714173,3.235195 1.908415,5.932522c10.483219,4.327684 18.971636,10.911896 23.338717,19.32592c4.37626,8.551394 13.095023,17.792684 27.174579,15.478948c12.748325,1.790776 27.684465,-4.467955 27.104058,-14.969711c0.247119,-7.440522 9.198265,-24.817273 21.262043,-15.985484c9.040839,2.836569 19.443812,9.862683 17.310947,17.836253c-1.235214,8.221286 -0.280859,16.513655 0.8916,24.801911c-7.571939,4.592102 -6.212517,12.568815 -11.500546,18.575093c4.38691,8.457129 0.161968,17.593551 -7.018927,24.461674c-7.182999,6.330497 -17.681733,11.952701 -29.317921,11.130399c-4.445573,6.05477 5.249155,11.382078 8.669491,11.721317c-8.912841,-2.337429 -7.657491,2.144608 -4.718873,6.933995c2.753236,8.966726 -5.889946,-7.988226 -11.472767,0.124134c-4.328775,3.502322 -21.63578,4.687866 -7.624034,0.490008c11.957886,-3.629389 -13.427821,-5.89876 -7.792933,2.279933c1.864876,3.412266 12.677754,4.914754 1.296043,3.6146c-5.025501,-2.161192 -7.713583,5.512786 -11.702668,4.065366l0.000006,0.000005zm23.988097,-15.771276c4.375331,-4.35672 5.634449,-16.961306 -3.828169,-7.771718c-7.479374,4.959375 -10.183521,13.49511 3.828169,7.771718z"
              fill-opacity="null" stroke-opacity="null" stroke-width="1.5" stroke="#000" fill="white"/>
    </g>
</svg>
