<svg width="200" height="200" xmlns="http://www.w3.org/2000/svg">
    <!-- Created with Method Draw - http://github.com/duopixel/Method-Draw/ -->
    <g>
        <title>background</title>
        <rect fill-opacity="0" id="canvas_background" height="202" width="202" y="-1" x="-1"/>
        <g display="none" overflow="visible" y="0" x="0" height="100%" width="100%" id="canvasGrid">
            <rect fill="url(#gridpattern)" stroke-width="0" y="0" x="0" height="100%" width="100%"/>
        </g>
    </g>
    <g>
        <title>Layer 1</title>
        <path stroke="#000" id="svg_31"
              d="m79.523939,39.653073c0,-6.438158 9.175414,-11.653073 20.503054,-11.653073c11.327657,0 20.503037,5.214914 20.503037,11.653073c0,6.438158 -9.17538,11.653073 -20.503037,11.653073c-11.327657,0 -20.503054,-5.214914 -20.503054,-11.653073zm68.934767,32.985636l0,-5.885136c0,-6.192027 -8.826887,-11.212446 -19.727791,-11.212446l-57.47136,0c-10.894591,0 -19.727783,5.020419 -19.727783,11.212446l0,5.885136c-0.019051,0.133582 -0.031771,0.27079 -0.031771,0.409791l0,33.897305c0,2.633869 3.754371,4.767676 8.388536,4.767676c4.627826,0 8.391688,-2.133817 8.391688,-4.767676l0,-33.395437l5.625162,0l0,38.166721l0.041288,0l0,53.928427c0,3.505797 5.008991,6.354488 11.183638,6.354488c6.177833,0 11.183638,-2.845079 11.183638,-6.354488l0,-53.928427l7.378472,0l0,53.928427c0,3.505797 5.012093,6.354488 11.183621,6.354488c6.177808,0 11.183613,-2.845079 11.183613,-6.354488l0,-53.928427l0.03494,0l0,-38.166721l5.62517,0l0,33.393621c0,2.633874 3.763854,4.769487 8.391697,4.769487c4.634225,0 8.388536,-2.135613 8.388536,-4.769487l0,-33.897296c-0.003152,-0.140807 -0.022237,-0.274403 -0.041296,-0.407989l0,0.000005z"
              fill-opacity="null" stroke-opacity="null" stroke-width="1.5" fill="white"/>
    </g>
</svg>
