<svg width="200" height="200" xmlns="http://www.w3.org/2000/svg">
    <!-- Created with Method Draw - http://github.com/duopixel/Method-Draw/ -->
    <g>
        <title>background</title>
        <rect fill-opacity="0" id="canvas_background" height="202" width="202" y="-1" x="-1"/>
        <g display="none" overflow="visible" y="0" x="0" height="100%" width="100%" id="canvasGrid">
            <rect fill="url(#gridpattern)" stroke-width="0" y="0" x="0" height="100%" width="100%"/>
        </g>
    </g>
    <g>
        <title>Layer 1</title>
        <path id="svg_35"
              d="m100.309701,48.303758c-2.784829,0 -5.03082,2.295561 -5.03082,5.124021l0,47.248595l-30.446787,13.547911c-2.548143,1.137533 -3.70639,4.160705 -2.58843,6.753459c0.82588,1.921508 2.669004,3.069288 4.607808,3.069288c0.674805,0 1.364717,-0.138349 2.019378,-0.435542l33.367584,-14.849412c0.025179,-0.010248 0.045323,-0.020496 0.065466,-0.030744l0.020143,-0.010248c0.075538,-0.030744 0.115825,-0.10248 0.186327,-0.128101c0.523729,-0.266449 1.012207,-0.579014 1.405004,-0.999184c0.171219,-0.174217 0.2669,-0.399674 0.397833,-0.59951c0.241721,-0.327937 0.508621,-0.650751 0.654661,-1.0453c0.120861,-0.307441 0.130932,-0.640503 0.191363,-0.96844c0.065466,-0.327937 0.191363,-0.620007 0.191363,-0.953068l0,-50.604829c0,-2.823335 -2.256064,-5.118897 -5.040892,-5.118897zm78.69029,8.746703c0,-19.635248 -15.636334,-35.550456 -34.938771,-35.550456c-9.759489,0 -18.562166,4.078721 -24.87713,10.642591c-6.02792,-1.634563 -12.332812,-2.58763 -18.869353,-2.58763c-6.717832,0 -13.193943,0.999184 -19.372939,2.720855c-6.340143,-6.635607 -15.188143,-10.775816 -25.003026,-10.775816c-19.297401,0 -34.938771,15.915208 -34.938771,35.550456c0,9.453818 3.656032,18.021181 9.573163,24.390339c-2.230884,7.122389 -3.449562,14.70594 -3.449562,22.586683c0,41.130515 32.768317,74.472518 73.191135,74.472518c40.422818,0 73.191135,-33.342003 73.191135,-74.472518c0,-8.070333 -1.304287,-15.817852 -3.635888,-23.099086c5.660302,-6.30767 9.130007,-14.670071 9.130007,-23.877937zm-78.685254,106.072354c-32.033082,0 -58.083566,-26.511683 -58.083566,-59.095331c0,-32.588772 26.050485,-59.100455 58.083566,-59.100455c32.033082,0 58.078531,26.506559 58.078531,59.100455c0,32.593896 -26.05552,59.095331 -58.078531,59.095331z"
              fill-opacity="null" stroke-opacity="null" stroke-width="1.5" stroke="#000" fill="white"/>
    </g>
</svg>
