<svg width="200" height="200" xmlns="http://www.w3.org/2000/svg">
    <!-- Created with Method Draw - http://github.com/duopixel/Method-Draw/ -->
    <g>
        <title>background</title>
        <rect fill-opacity="0" id="canvas_background" height="202" width="202" y="-1" x="-1"/>
        <g display="none" overflow="visible" y="0" x="0" height="100%" width="100%" id="canvasGrid">
            <rect fill="url(#gridpattern)" stroke-width="0" y="0" x="0" height="100%" width="100%"/>
        </g>
    </g>
    <g>
        <title>Layer 1</title>
        <path id="svg_34"
              d="m100.004603,61.286594c-19.965901,0 -36.135987,17.324525 -36.135987,38.715863c0,21.376585 16.170085,38.710946 36.135987,38.710946c19.947542,0 36.126807,-17.33436 36.126807,-38.710946c0.00459,-21.391338 -16.170085,-38.715863 -36.126807,-38.715863zm0,67.596629c-14.889514,-0.03934 -26.924133,-12.933154 -26.960852,-28.875848c0.032129,-15.947611 12.071338,-28.846342 26.960852,-28.885683c14.880334,0.03934 26.914953,12.938071 26.947082,28.885683c-0.032129,15.942694 -12.066748,28.836507 -26.947082,28.875848zm0,-70.188177c2.538194,0 4.589862,-2.203062 4.589862,-4.922467l0,-23.85503c-0.00918,-2.719405 -2.056258,-4.917549 -4.589862,-4.917549c-2.538194,0 -4.594452,2.207979 -4.589862,4.927384l0,23.850113c0,2.709569 2.051668,4.917549 4.589862,4.917549zm14.747228,3.137396c0.573733,0.26063 1.170415,0.373734 1.753327,0.378651c1.808406,0 3.511245,-1.145789 4.245623,-3.039045l8.518785,-22.045372c0.963871,-2.512868 -0.142286,-5.384716 -2.483116,-6.422319c-2.34542,-1.037603 -5.030489,0.152444 -6.00354,2.660394l-8.514195,22.05029c-0.968461,2.50795 0.142286,5.384716 2.483116,6.417401zm12.507375,8.954857c0.895023,0.954005 2.070028,1.440842 3.245033,1.440842s2.35001,-0.48192 3.245033,-1.440842l15.743228,-16.881946c1.794636,-1.917844 1.790046,-5.030653 0,-6.958332c-1.799226,-1.917844 -4.704609,-1.917844 -6.494655,0.009835l-15.738638,16.872111c-1.794636,1.922762 -1.794636,5.03557 0,6.958332zm8.367319,13.395403c0.725198,1.893256 2.437217,3.034128 4.236443,3.034128c0.582913,0 1.179595,-0.122939 1.757917,-0.383569l20.562584,-9.131888c2.34542,-1.037603 3.456166,-3.919287 2.483116,-6.427237s-3.65353,-3.697997 -5.99895,-2.655476l-20.567173,9.131888c-2.34083,1.04252 -3.446987,3.924204 -2.473936,6.432154zm29.783617,10.872701l-22.265423,0.004918c-2.533604,0 -4.589862,2.203062 -4.580683,4.922467c0,2.719405 2.051668,4.912631 4.580683,4.912631l22.270012,-0.009835c2.538194,0 4.585273,-2.207979 4.585273,-4.917549c0,-2.719405 -2.056258,-4.922467 -4.589862,-4.912631zm-3.203724,27.184211l-20.571763,-9.117136c-2.35001,-1.04252 -5.035079,0.147526 -5.99895,2.660394c-0.968461,2.512868 0.142286,5.389634 2.483116,6.432154l20.571763,9.117136c0.578323,0.250795 1.175005,0.368816 1.757917,0.368816c1.803816,0 3.511245,-1.140871 4.245623,-3.034128c0.963871,-2.512868 -0.151465,-5.394551 -2.487705,-6.427237zm-28.429608,6.948497c-1.794636,-1.922762 -4.695429,-1.922762 -6.490065,0.004918c-1.794636,1.917844 -1.790046,5.025735 0,6.948497l15.761587,16.862276c0.895023,0.958922 2.065438,1.440842 3.240443,1.440842s2.354599,-0.48192 3.249623,-1.440842c1.794636,-1.927679 1.785456,-5.040488 0,-6.958332l-15.761587,-16.857358zm-12.9939,11.620168c-0.968461,-2.512868 -3.65353,-3.697997 -5.99895,-2.660394c-2.34083,1.04252 -3.451577,3.919287 -2.478526,6.432154l8.537144,22.03062c0.729788,1.893256 2.437217,3.034128 4.245623,3.034128c0.587502,0 1.184185,-0.118021 1.757917,-0.373734c2.34542,-1.037603 3.451577,-3.919287 2.478526,-6.437072l-8.541734,-22.025702zm-20.732408,0.506508c-2.538194,0 -4.589862,2.203062 -4.589862,4.917549l0.018359,23.85503c0,2.719405 2.060848,4.912631 4.589862,4.912631c2.538194,0 4.589862,-2.203062 4.580683,-4.917549l-0.01377,-23.859948c0,-2.704652 -2.060848,-4.912631 -4.585273,-4.907714zm-14.760997,-3.127561c-2.34083,-1.032685 -5.021309,0.152444 -5.99436,2.670229l-8.500425,22.045372c-0.963871,2.512868 0.151465,5.389634 2.492295,6.427237c0.573733,0.255713 1.165825,0.373734 1.753327,0.373734c1.799226,0 3.511245,-1.150706 4.241033,-3.043963l8.505015,-22.055207c0.968461,-2.50795 -0.151465,-5.379799 -2.496885,-6.417401zm-12.511965,-8.935187c-1.799226,-1.922762 -4.704609,-1.912927 -6.494655,0.009835l-15.724869,16.881946c-1.794636,1.927679 -1.785456,5.030653 0.00918,6.958332c0.895023,0.954005 2.065438,1.435924 3.240443,1.435924c1.179595,0 2.354599,-0.48192 3.249623,-1.440842l15.729458,-16.886863c1.785456,-1.922762 1.785456,-5.03557 -0.00918,-6.958332zm-8.371909,-13.380651c-0.977641,-2.503032 -3.65812,-3.693079 -5.99895,-2.655476l-20.557994,9.151559c-2.34542,1.04252 -3.451577,3.924204 -2.478526,6.432154c0.734378,1.893256 2.437217,3.02921 4.241033,3.02921c0.582913,0 1.184185,-0.118021 1.757917,-0.373734l20.557994,-9.151559c2.33624,-1.052355 3.446987,-3.929122 2.478526,-6.432154zm-2.965051,-15.795167c0,-2.719405 -2.051668,-4.912631 -4.589862,-4.912631l-22.265423,0.029505c-2.538194,0 -4.594452,2.203062 -4.585273,4.922467c0.00459,2.709569 2.060848,4.917549 4.589862,4.907714l22.270012,-0.029505c2.533604,0 4.589862,-2.212897 4.580683,-4.917549zm-23.665331,-22.242074l20.585533,9.097466c0.573733,0.26063 1.165825,0.373734 1.748738,0.373734c1.803816,0 3.515835,-1.140871 4.245623,-3.039045c0.973051,-2.512868 -0.146876,-5.394551 -2.496885,-6.422319l-20.576353,-9.097466c-2.34542,-1.032685 -5.025899,0.157362 -5.99436,2.665312c-0.973051,2.512868 0.151465,5.379799 2.487705,6.422319zm28.425018,-6.973084c0.895023,0.949087 2.060848,1.431007 3.235853,1.431007s2.354599,-0.48192 3.254212,-1.450677c1.794636,-1.912927 1.785456,-5.030653 -0.018359,-6.953414l-15.761587,-16.837688c-1.790046,-1.917844 -4.704609,-1.908009 -6.490065,0.014753c-1.794636,1.917844 -1.785456,5.03557 0.00918,6.953414l15.770767,16.842605zm12.975541,-11.639838c0.734378,1.888339 2.441807,3.024293 4.236443,3.024293c0.587502,0 1.184185,-0.122939 1.762507,-0.378651c2.34083,-1.04252 3.456166,-3.924204 2.478526,-6.427237l-8.555504,-22.025702c-0.973051,-2.50795 -3.66271,-3.693079 -6.00354,-2.650559c-2.34083,1.047438 -3.446987,3.929122 -2.473936,6.432154l8.555504,22.025702z"
              fill-opacity="null" stroke-opacity="null" stroke-width="1.5" stroke="#000" fill="white"/>
    </g>
</svg>
