<svg width="200" height="200" xmlns="http://www.w3.org/2000/svg">
    <!-- Created with Method Draw - http://github.com/duopixel/Method-Draw/ -->
    <g>
        <title>background</title>
        <rect fill-opacity="0" id="canvas_background" height="202" width="202" y="-1" x="-1"/>
        <g display="none" overflow="visible" y="0" x="0" height="100%" width="100%" id="canvasGrid">
            <rect fill="url(#gridpattern)" stroke-width="0" y="0" x="0" height="100%" width="100%"/>
        </g>
    </g>
    <g>
        <title>Layer 1</title>
        <path id="svg_37"
              d="m48.932634,34.507286l-7.350346,0c0,0 -5.716948,-0.40982 -7.350346,4.917728c-2.909538,3.841911 -8.345702,2.151472 -9.800444,3.688269c-1.607907,0 -5.308598,0.717157 -4.900249,2.45881c0.40835,1.741707 1.633452,2.049045 1.225049,2.458864c-0.40835,0.40982 -1.531324,8.810908 9.187946,8.605998c0,0 1.122975,2.45881 6.125297,0c0,0 1.122921,-0.922067 3.062595,0.614676c1.939728,1.536797 5.819022,2.663774 6.737849,2.458864c0.918773,-0.20491 6.737795,9.732921 6.737795,23.973751c0,14.240884 7.860823,24.076233 10.412995,24.588534c0,0 6.201826,19.824448 6.431519,37.497423c0,0 1.531324,7.479021 -5.206471,7.376539c-3.636882,3.035156 -5.244789,5.109808 -3.062649,4.917728c0,0 0.842244,1.383047 2.450098,1.229405c0.696271,-0.249547 -5.627593,4.533516 -3.062649,4.302999c0,0 1.123028,3.27845 5.512746,1.229405c0,0 6.737849,0.61473 7.350346,-3.688269c0.612551,-4.302999 0.918827,-11.295325 3.6752,-10.450132c0,0 0.408296,-34.321401 3.675146,-36.882693c0,0 16.22767,1.34434 34.914131,-9.835403c5.308598,-3.176022 10.719217,-7.88884 11.63799,3.07354c0.918827,10.96238 17.354991,20.080625 19.600941,26.432615c2.24595,6.352043 3.470998,4.098089 3.062595,19.056076c0,0 -3.879294,-0.922067 -6.737795,2.458864c-1.8376,1.844135 0.612551,1.844135 0.612551,1.844135c0,0 -1.42925,1.434315 3.062649,1.229459c0,0 0.612498,0.691497 3.675146,0c0,0 5.104397,0.307338 4.287697,-3.688269c0,0 0.306276,-22.7444 1.8376,-21.51494c1.531324,1.229405 9.392094,8.401034 9.187892,23.973751c0,0 -3.470998,0.512248 -3.675146,4.302999c0,0 -1.735472,1.946563 0.612498,2.458864c0,0 3.292342,0.845192 4.287697,0c0,0 4.185677,1.434315 4.287697,-3.688323c0.102074,-5.122584 -3.368871,-22.897988 -1.837546,-27.047291c0,0 -13.169368,-7.68393 -15.313244,-31.350343c0,0 6.125297,20.080625 25.726238,16.597212c0,0 1.42925,-0.614676 -0.612551,-1.229405c-2.041802,-0.61473 -18.171691,1.536797 -22.051039,-18.441347c-2.832955,-14.292098 -0.68908,-15.828841 -9.800444,-21.51494c-12.250541,-11.756359 -42.774901,0.102428 -52.064867,-3.688269c-8.575395,-4.302999 -8.881671,-4.37982 -18.375839,-7.376539c-9.723915,-5.148245 -8.064918,-11.064808 -15.31319,-19.056076c-5.551064,-7.491797 -5.61482,-6.659381 -6.125297,-7.376539c-0.510477,-0.717211 -0.102074,-4.098089 -6.737795,-4.917728z"
              fill-opacity="null" stroke-opacity="null" stroke-width="1.5" stroke="#000" fill="white"/>
    </g>
</svg>
