<svg width="200" height="200" xmlns="http://www.w3.org/2000/svg">
    <!-- Created with Method Draw - http://github.com/duopixel/Method-Draw/ -->
    <g>
        <title>background</title>
        <rect fill-opacity="0" id="canvas_background" height="202" width="202" y="-1" x="-1"/>
        <g display="none" overflow="visible" y="0" x="0" height="100%" width="100%" id="canvasGrid">
            <rect fill="url(#gridpattern)" stroke-width="0" y="0" x="0" height="100%" width="100%"/>
        </g>
    </g>
    <g>
        <title>Layer 1</title>
        <path id="svg_32"
              d="m161.669874,96.769936c-6.011612,-1.329654 -12.268493,-2.205119 -17.34908,-2.442087l-0.895985,-0.039495c0.205226,-0.59242 0.360396,-0.993949 0.410451,-1.053191c0.110121,-0.118484 0.20022,-0.61875 0.210231,-1.105851c0,-0.26988 0.090099,-1.145346 0.230253,-2.303856c1.376514,0.065824 3.203523,0.118484 5.195714,0.138231c7.693461,0.078989 15.742313,0.895213 21.263385,2.17879c3.288617,0.763564 4.374811,0.737234 1.947141,-0.039495c-2.457703,-0.783311 -9.745718,-1.935239 -15.552104,-2.435505c-3.899288,-0.34887 -9.490438,-0.480519 -12.78406,-0.408112c0.095105,-0.750399 0.205226,-1.586369 0.320352,-2.442087c0.465512,-3.31097 0.620683,-6.641688 0.630694,-13.270211c0.010011,-10.281781 -0.410451,-13.112232 -2.958253,-19.911899c-1.03614,-2.777792 -2.207428,-5.134308 -3.623986,-7.26702c1.23636,-4.798603 1.206327,-12.230185 -0.075083,-18.746806c-1.056162,-5.344946 -1.426569,-5.687233 -5.110621,-4.660372c-3.123435,0.875465 -5.626188,2.066888 -8.834716,4.193018c-1.516668,1.007114 -3.608969,2.573736 -5.125637,3.804654c-3.954349,-1.82992 -8.043847,-3.04109 -12.408647,-3.692752c-4.424866,-0.658245 -15.271796,-0.289628 -19.121029,0.64508c-3.76414,0.91496 -7.152867,2.033976 -10.221241,3.36363c-1.531685,-1.244082 -3.754129,-2.922606 -5.340874,-3.975797c-3.223545,-2.132712 -5.726298,-3.317553 -8.859744,-4.193018c-3.674041,-1.033444 -4.054459,-0.684574 -5.105615,4.660372c-1.301431,6.602193 -1.311442,14.158841 -0.025028,18.944279c0.150165,0.546343 0.240264,0.934707 0.275303,1.2375c-5.215736,8.636169 -6.917608,18.2992 -5.786364,31.786631c0.295325,3.515026 0.750826,6.740425 1.386525,9.695943c-3.328661,-0.02633 -8.063869,0.131649 -11.482629,0.421277c-5.816397,0.506848 -13.104412,1.645611 -15.562115,2.428923c-2.422664,0.776729 -1.346481,0.803058 1.947141,0.046077c5.521072,-1.276995 13.57493,-2.106383 21.263385,-2.17879c1.451596,-0.006582 2.808088,-0.046077 3.974371,-0.085572c0.350385,1.56004 0.750826,3.047672 1.206327,4.462898l-0.035039,0.006582c-5.080588,0.230386 -11.332463,1.105851 -17.344075,2.435505c-4.50996,0.993949 -11.167282,2.981848 -11.943135,3.554521c-0.815897,0.599003 -0.150165,0.467354 3.343677,-0.697739c6.372008,-2.119548 14.656119,-3.745412 24.917404,-4.877592l1.146261,-0.131649c2.202422,6.72726 5.596155,11.861568 10.391428,15.863695c2.933226,2.455252 7.633395,4.976329 10.000999,5.371276c0.650716,0.105319 2.542797,0.61875 4.204624,1.132181c1.666833,0.513431 4.925417,1.283577 7.23796,1.724601l0.055061,0c-0.04505,0.039495 -0.085094,0.065824 -0.125138,0.105319c-2.803083,1.915492 -4.625087,4.89734 -5.851435,9.590624c-0.550606,0.217221 -1.23636,0.513431 -1.977174,0.849136c-2.647912,1.18484 -3.679046,1.428391 -6.361997,1.454721c-2.783061,0.02633 -3.443787,-0.131649 -5.105615,-1.15851c-2.417659,-1.48105 -4.670136,-4.206183 -6.171788,-7.457911c-2.507758,-5.4371 -6.842525,-9.281249 -10.4565,-9.281249c-3.088397,0 -3.674041,1.645611 -1.441585,4.048204c3.363699,3.613763 5.876463,7.299933 6.907597,10.117219c0.580639,1.579787 1.471618,4.021874 1.987185,5.423935c0.5456,1.494215 1.711883,3.521609 2.823105,4.92367c2.612874,3.278058 5.135648,4.84468 8.899788,5.581914c2.522775,0.487101 3.143457,0.487101 6.121733,-0.013165c1.43658,-0.230386 2.647912,-0.500266 3.734107,-0.835971c0,1.606117 0,3.455784 0,5.627991c0,11.6246 -0.105116,15.363429 -0.455501,16.456115c-0.660727,2.080053 -2.142356,4.219348 -3.583942,5.180385c-1.43658,0.961037 -1.88207,2.020811 -1.276404,2.995013c0.335369,0.526596 0.981079,0.61875 3.148463,0.434441c4.114525,-0.335705 7.022724,-2.336768 8.504353,-5.864959c0.475523,-1.132181 0.585644,-3.409707 0.735809,-15.25811c0.160176,-12.855517 0.230253,-14.093017 0.865952,-15.929519c0.385424,-1.092686 0.941035,-2.277526 1.251376,-2.600066c0.520573,-0.56609 0.555611,0.552925 0.555611,15.929519c-0.005006,16.969546 -0.135149,19.016686 -1.426569,22.281579c-0.290319,0.743816 -0.840925,1.711436 -1.226349,2.172207c-0.675743,0.809641 -0.961057,2.883111 -0.490539,3.508444c0.775853,1.013697 4.665131,-0.579255 6.787465,-2.777792c3.613975,-3.765159 4.044448,-6.878656 4.074481,-29.364291l0.015017,-13.191222l1.096206,0.138231l1.096206,0.131649l0.180198,17.252591c0.205226,19.424798 0.235259,19.707843 2.748022,23.459837c1.426569,2.119548 2.863149,3.291223 5.20072,4.206183c3.128441,1.2375 4.069476,-0.671409 1.967163,-3.98238c-2.287516,-3.600598 -2.397637,-4.976329 -2.272499,-26.290289c0.085094,-13.665158 0.085094,-13.665158 0.755831,-12.868682c1.411552,1.685106 1.68185,4.449733 1.68185,17.265756c0,15.916354 0.34538,17.430317 4.620081,20.208109c1.997197,1.283577 2.557813,1.441556 5.115626,1.454721c2.722995,0.013165 2.888176,-0.039495 2.988286,-0.974202c0.085094,-0.756981 -0.250275,-1.270412 -1.521674,-2.290691c-1.666833,-1.349401 -2.823105,-3.074002 -3.548903,-5.246209c-0.275303,-0.835971 -0.460506,-6.312566 -0.585644,-17.588296c-0.180198,-15.751793 -0.220242,-16.46928 -0.966062,-18.937697c-1.006107,-3.317553 -2.542797,-5.937366 -4.489938,-7.675132c-0.505556,-0.434441 -1.011112,-0.796476 -1.666833,-1.066356c0.805886,-0.105319 1.586745,-0.217221 2.342576,-0.362035c7.868654,-1.375731 12.028229,-2.521077 15.3669,-4.219348c7.062768,-3.574268 11.838019,-9.511634 14.425865,-17.930583c0.230253,-0.750399 0.460506,-1.461303 0.655721,-2.033976l1.992191,0.217221c10.266291,1.138763 18.550402,2.764627 24.922409,4.890757c3.493842,1.165093 4.159575,1.303324 3.343677,0.691157c-0.760837,-0.559508 -7.418158,-2.540824 -11.923113,-3.534773zm-30.103107,-0.204056c-1.166283,3.370212 -4.419861,7.701462 -7.047751,9.399733c-2.592852,1.685106 -6.657322,2.968683 -11.262386,3.580851c-3.148463,0.421277 -20.707774,0.546343 -23.605962,0.171144c-9.595553,-1.2375 -14.971465,-3.666422 -18.935825,-8.53085c-3.754129,-4.620877 -5.506056,-10.893948 -5.20072,-18.615157c0.195215,-4.831515 1.081189,-7.866023 3.398738,-11.552193c2.107318,-3.357047 4.324756,-5.430518 6.93763,-6.483709c2.187406,-0.882048 8.899788,-0.961037 17.924713,-0.197473c3.989387,0.335705 7.288015,0.335705 11.272397,0c9.440382,-0.783311 15.742313,-0.697739 18.069873,0.250133c3.659024,1.487633 6.992691,5.48976 8.994893,10.821541c0.900991,2.382845 1.076184,3.396542 1.206327,7.076129c0.180198,5.068483 -0.485534,10.452924 -1.751927,14.079852zm-47.602353,-21.761566c-5.370907,-1.2375 -8.439281,10.854453 -4.319751,17.028788c1.957152,2.929188 3.694063,3.409707 5.866452,1.632447c2.012213,-1.652194 3.103413,-4.739361 3.103413,-8.741488c0,-5.338364 -1.847031,-9.261501 -4.650114,-9.919746zm32.600854,0.724069c-5.370907,-1.2375 -8.444287,10.841288 -4.324756,17.022205c1.962158,2.929188 3.694063,3.416289 5.871457,1.625864c2.007208,-1.645611 3.103413,-4.739361 3.103413,-8.741488c0,-5.318616 -1.847031,-9.254919 -4.650114,-9.906581zm-14.445887,23.775795c-0.115127,0.487101 -0.675743,1.21117 -1.241365,1.599534c-1.431574,0.96762 -2.462708,0.631915 -3.974371,-1.178258c-0.936029,-1.112433 -1.361497,-1.698271 -1.646811,-0.533178c-0.265292,1.079521 1.401541,3.245146 2.687956,3.909973c1.181299,0.61875 2.02723,0.638497 3.308639,-0.065824c1.271398,-0.697739 2.38262,-2.573736 2.38262,-3.791489c0,-1.132181 -1.23636,-1.079521 -1.516668,0.059242zm-1.586745,-3.784906c0.815897,-0.947872 1.001101,-2.896276 0.220242,-3.92972s-2.367604,-0.875465 -2.988286,0.283045c-0.720793,1.355984 -0.335369,2.389428 0.180198,3.488696c0.800881,0.816223 1.877064,0.980784 2.587846,0.157979z"
              fill-opacity="null" stroke-opacity="null" stroke-width="1.5" stroke="#000" fill="white"/>
    </g>
</svg>
