<svg width="200" height="200" xmlns="http://www.w3.org/2000/svg">
    <!-- Created with Method Draw - http://github.com/duopixel/Method-Draw/ -->
    <g>
        <title>background</title>
        <rect fill-opacity="0" id="canvas_background" height="202" width="202" y="-1" x="-1"/>
        <g display="none" overflow="visible" y="0" x="0" height="100%" width="100%" id="canvasGrid">
            <rect fill="url(#gridpattern)" stroke-width="0" y="0" x="0" height="100%" width="100%"/>
        </g>
    </g>
    <g>
        <title>Layer 1</title>
        <path stroke="#000" id="svg_30"
              d="m36.157195,52.335117c-0.668616,0 -1.012284,-0.812867 -1.012284,-1.787641c0,-0.812679 0.171808,-1.601697 0.668616,-1.601697c0.343668,0 0.861016,0.789019 1.032824,1.601697c0.343668,1.183245 0,1.787641 -0.689156,1.787641zm114.292873,46.381202c1.529684,0 1.8733,0.208471 1.012284,1.601509c-0.496808,0.974774 -1.529632,1.787452 -2.02644,1.787452c-0.517296,0 -1.032824,-0.812679 -1.032824,-1.787452c0,-0.998685 0.689208,-1.601509 2.04698,-1.601509zm-106.795982,-56.734658c-1.529632,-0.394415 -1.701492,-2.39166 0,-2.994672c0.860964,-0.185692 1.357824,0.394352 1.357824,1.601697c0,0.99856 -0.49686,1.578856 -1.357824,1.392975zm-19.067203,63.094568c2.04698,-0.580359 2.04698,-0.99749 1.357824,-2.367811c-0.515528,-0.99749 -0.687336,-2.204709 -0.343668,-2.599187c0.171808,-0.604082 1.032824,0 1.529632,1.183371c0.689156,1.601697 1.204632,1.811427 2.562456,0.812679c0.842348,-0.602949 1.529632,-0.998434 1.529632,-0.394352c0,0.394352 0.517348,0 1.185964,-0.812679c1.032876,-1.183371 1.204684,-3.783628 0.17186,-5.176728c-0.840476,-1.183371 -5.106244,-0.788893 -6.292208,0.602949c-0.687336,0.998748 -1.204684,0.790151 -1.8733,-0.997301c-1.032824,-2.972082 -1.032824,-3.389339 1.357772,-3.575031c2.04698,0 2.04698,0 0.343668,-1.207219c-0.859144,-0.580359 -1.70144,-1.787452 -1.70144,-2.576471c0,-1.997119 2.371928,-3.18049 3.404752,-1.78739c0.343668,0.580233 1.012336,1.183371 1.701492,1.183371c1.357824,0 7.840508,-6.75464 7.840508,-8.14774c0,-0.604019 0.670488,-0.998371 1.357824,-0.604019c0.842296,0.209667 2.37198,-0.394352 3.922152,-1.3931c2.198248,-1.601572 2.198248,-1.787452 1.012284,-4.38664c-0.840476,-1.787452 -1.8733,-2.39166 -4.263948,-2.39166c-2.715596,0 -3.404752,0.394541 -4.245228,2.786201c-0.34554,1.601509 -1.378312,2.784942 -2.04698,2.784942c-1.185964,0 -1.529632,-1.786383 -0.343668,-2.784942c0.515476,-0.394541 0.859144,-1.787452 0.859144,-3.180553c0,-2.182056 -0.343668,-2.576471 -2.562456,-1.996049c-2.218788,0.394352 -2.218788,0.208471 -1.701492,-2.786327c0.343668,-1.78739 0.840476,-3.388961 1.186016,-3.574842c0.343668,-0.208471 0.687284,-1.996049 0.687284,-3.783502c0,-3.57522 1.014156,-4.178169 2.889328,-1.601697c0.859092,1.393037 1.376492,1.601697 1.70144,0.394352c0.343668,-0.788893 1.5483,-0.974774 3.423472,-0.580422c2.543788,0.789019 2.715596,0.580422 2.371928,-1.787452c-0.171808,-1.392912 -0.345488,-2.994609 -0.517296,-3.388961c0,-0.603138 -0.840476,-1.3931 -1.854632,-1.996238c-2.04698,-0.998371 -2.562456,-3.388961 -0.689156,-3.388961c0.517348,0 1.014104,-0.394541 1.014104,-1.184629c0,-0.603138 1.032876,-0.99749 2.390648,-0.812804c1.875172,0.209667 2.887456,-0.580107 5.449912,-4.758087c1.875172,-2.994798 3.232944,-4.596369 3.404804,-3.783691c0.171808,0.99749 1.032824,1.577723 1.87512,1.577723c1.357824,0 1.529684,-0.580233 1.032876,-3.17942c-0.17368,-1.787578 -1.032876,-3.969383 -1.550172,-4.968131c-1.529684,-2.20559 -1.529684,-4.782061 0,-3.993357c1.204632,0.790151 4.953052,-1.391842 4.953052,-2.784879c0,-0.604082 0.49868,-0.99856 1.185964,-0.99856c0.689208,0 1.014156,1.207157 1.014156,2.786138c0,1.996049 0.343668,2.785068 1.204684,2.204646c0.668616,-0.417194 1.186016,-1.601697 1.186016,-2.390527c0,-2.391786 5.44986,-6.569829 6.807632,-5.385388c0.5174,0.394667 1.032824,0 1.206608,-1.392912c0.496756,-2.786138 3.574688,-4.968131 4.93246,-3.575031c0.689208,0.580233 1.357876,0.394541 1.531556,-0.208471c0.343616,-0.790088 1.70144,-1.3931 3.231072,-1.579107c1.529632,-0.208471 3.576612,-0.99856 4.437628,-1.811238c3.231072,-2.576471 6.464068,-2.39059 7.82184,0.395736c0.861016,1.995924 1.204632,1.995924 1.204632,0.602823c0,-1.787578 0.67054,-1.996049 4.762628,-1.392912c6.482736,0.790088 7.496892,0.790088 9.887539,-0.20866c1.529632,-0.580359 2.046928,-0.394478 2.046928,1.207031c0,0.998748 0.49686,1.787641 1.186016,1.787641c0.515476,0 1.012284,-0.580422 1.012284,-1.184503c0,-1.601509 2.736188,-2.390527 5.126784,-1.601509c1.854632,0.790088 2.02644,0.998371 1.529632,6.36098c-0.171808,3.203269 0,5.385262 0.325,5.385262c0.343616,0 0.689156,-1.3931 0.689156,-3.38915c0,-3.366434 1.8733,-4.758402 2.562456,-1.996112c0.17186,0.997553 0.668616,0.603012 1.012284,-0.974711c0.861068,-4.179238 2.736188,-1.997308 2.218788,2.576471c-0.515424,3.783502 -0.515424,3.783502 1.014208,2.390401c0.860964,-0.603012 1.52958,-2.181805 1.52958,-3.17942c0,-0.998623 0.5174,-2.183063 1.204736,-2.60032c1.35772,-0.788704 2.889276,2.204835 2.390596,4.387709c-0.171808,0.997679 -0.171808,1.787578 0.324948,1.787578c0.34554,0 0.689208,-0.580233 0.689208,-0.99856c0,-0.580359 0.842296,-0.789019 1.87512,-0.394352c2.216968,0.603012 2.541916,2.204521 0.668668,3.179294c-0.496808,0.418327 -1.014156,1.3931 -1.014156,2.205905c0,1.3931 0.345488,1.3931 2.218788,0c3.059264,-2.390527 4.417036,-2.205905 4.934436,0.394352c0.343616,1.3931 1.014104,1.997182 1.70144,1.3931c0.689156,-0.208597 2.218788,0.604082 3.404804,1.996049c1.032824,1.184441 2.562456,2.181993 3.251612,2.181993c1.014156,0 1.014156,0.998685 0.668616,3.784697c-0.343616,2.994798 -0.343616,3.38915 0.689208,2.182119c1.357772,-1.973522 1.8733,-1.787767 2.37198,0.997301c0.171808,1.3931 1.37644,2.39166 2.734264,2.994672c1.529632,0.395736 2.37198,1.393037 2.37198,2.577541c0,1.207157 0.515424,2.599187 1.032824,3.389276c1.357824,1.392912 1.012284,5.570954 -0.5174,6.963992c-0.515424,0.417257 -1.185912,0.20866 -1.357772,-0.394352c-0.343616,-0.604208 -1.529632,-0.604208 -3.748472,0c-3.576612,1.391842 -4.245228,1.787452 -3.404752,3.597621c0.517348,1.183371 6.465888,0.789019 9.715679,-0.604082c1.014156,-0.603075 1.357824,0 1.357824,2.786201c0,1.995924 -0.343668,3.575031 -0.859144,3.575031c-0.34554,0 -0.670488,0.602949 -0.670488,1.601509c0,2.391534 0.842348,2.181805 3.061136,-0.603138c1.184092,-1.601509 1.873248,-1.997119 2.715596,-0.998371c0.859144,0.998371 1.032824,0.998371 1.032824,-0.603138c0,-0.975969 -0.34554,-1.787452 -0.860964,-1.787452c-0.325,0 -0.67054,-0.790088 -0.67054,-1.579107c0,-0.998434 0.49868,-1.787452 1.185964,-1.787452c0.517348,0 1.204684,0.394352 1.204684,0.974774c0,0.604333 0.670488,1.393037 1.531504,1.601697c1.184144,0.604208 1.529632,1.3931 1.357772,3.783628c-0.345488,4.573465 0.34372,5.966691 2.887456,5.177798c1.204684,-0.395736 1.873248,0 1.357824,0.788893c-0.15314,0.394352 0,1.3931 0.343668,1.810043c1.378312,1.184566 0.860964,3.969697 -0.668668,3.969697c-1.87512,0 -2.390648,0.998371 -1.37644,2.786012c0.687284,0.99856 1.204632,1.183371 1.873248,0.394478c1.550172,-1.996049 1.875172,-0.394478 2.04698,7.568388c0,3.991973 0.343668,7.172652 0.687336,7.172652c0.842296,0 0.517348,4.387709 -0.687336,6.175162c-0.670488,0.99749 -0.670488,1.972201 -0.171808,2.784879c1.204632,1.787641 0,6.964369 -1.531556,6.964369c-1.35772,0 -3.920228,3.783502 -3.920228,5.57108c0,2.183189 -2.198248,0 -2.715596,-2.39059c-0.515476,-2.18193 -0.515476,-2.18193 -0.861016,-0.604082c-0.324948,1.811301 1.531504,7.382381 3.079856,8.961174c1.014104,1.207345 -0.861016,3.203269 -2.21884,2.39059c-0.689208,-0.394352 -1.014156,-1.577723 -1.014156,-2.784942c0,-3.388961 -4.263948,-11.932249 -7.496892,-15.135392c-1.720108,-1.579107 -3.249792,-3.36656 -3.249792,-3.969509c0,-1.207219 -5.451732,-4.968131 -8.510996,-6.175288c-1.703364,-0.604082 -2.21884,-0.394415 -2.21884,1.207157c0,1.183371 -0.324948,1.577723 -1.014156,1.183371c-1.529632,-0.789019 -2.218788,0.998748 -0.860964,2.786201c1.87512,2.18193 1.550172,4.782061 -0.496808,3.783502c-1.376492,-0.603012 -1.548352,-0.394541 -1.032824,2.994735c0.171808,1.973333 0.517348,4.573465 0.517348,5.756835c0,1.207219 0.343616,1.996238 0.687284,1.996238c0.498732,0 0.670488,-0.394541 0.325,-0.99749c-0.171808,-0.604208 0.173732,-1.184503 0.860964,-1.184503c0.5174,0 1.014156,0.789963 1.014156,1.578856c0,0.812804 -0.670436,1.601509 -1.87512,1.393226c-1.012284,0 -1.8733,-0.580422 -1.8733,-0.9749c0,-1.811427 -4.590768,-14.138028 -5.94854,-15.948196c-1.529684,-1.973522 -0.515528,-2.576471 -12.603187,6.778237c-1.873248,1.3931 -3.920228,4.387709 -4.953052,6.569829c-0.842348,2.181805 -2.20012,4.387709 -2.887456,4.782061c-0.689156,0.394541 -3.232944,3.575031 -5.451784,6.964181c-9.543871,14.925662 -7.9937,16.713241 -7.325032,47.194006c2.889276,23.097062 2.889276,23.097062 2.889276,23.097062c-6.809556,0 -6.809556,0 -6.809556,0c-5.62172,0 -5.62172,0 -5.62172,0c0.515476,-21.310806 0.515476,-21.310806 0.515476,-21.310806c0.343616,-1.786257 0.517348,-5.385073 0.689208,-7.381312c0.171808,-1.184441 -4.781296,-6.361169 -4.609436,-7.544414c0,-0.99856 5.124912,1.787641 5.124912,0.788893c0.842296,-14.53131 0,-26.09186 -2.21884,-32.244369c-0.515476,-3.783691 -4.781244,-15.947001 -5.44986,-15.947001c-0.17186,0 -1.376492,-1.184441 -2.562456,-2.577541c-2.047032,-2.599061 -2.887456,-2.785068 -14.306499,-3.575031c-12.259467,-0.811609 -12.259467,-0.811609 -12.259467,-0.811609c-2.906124,2.785068 -2.906124,2.785068 -2.906124,2.785068c-1.70144,1.811238 -3.404752,2.994672 -3.901612,2.994672c-1.032824,0 -5.298592,4.17905 -7.153224,6.569451c-0.171808,0 -0.343616,-0.208282 -0.343616,-0.394352c-0.17186,0 -0.17186,0 -0.17186,-0.208597c-0.171808,-0.580233 -0.345488,-1.184441 -0.689156,-1.787452c1.032824,-0.99856 1.87512,-1.602641 2.218788,-1.392912c0.515476,0.394352 1.014156,0 1.014156,-0.998748c0,-0.99749 -1.014156,-1.393037 -3.729752,-0.99749c-3.251664,0.603138 -4.09396,0.811609 -4.609436,3.179483c-0.842348,1.207157 -1.014156,2.994735 -0.515476,4.387835c-0.173732,1.787452 -0.173732,2.994609 0,2.994609c0.171808,0 0.343616,-0.394352 0.859144,-0.812679c0,0.20866 0.171808,0.418327 0.345488,0.604082c-1.703312,0.603012 -2.564328,2.39059 -2.390648,4.178043c-0.860964,0.812679 -1.703312,1.207157 -2.736084,1.810168c0,0 0,-0.208471 -0.153192,-0.208471c0.670488,-1.787452 1.014156,-3.783691 1.185964,-6.7783c0.34554,-3.36656 0.171808,-5.57108 -0.343616,-5.57108c-0.343668,0 -0.689156,0.812679 -0.689156,1.995861c0.171756,0.998748 -0.153192,1.996238 -0.840528,2.182119c-0.517348,0.208471 -0.860964,-0.185881 -0.860964,-1.183371c0,-2.39166 -0.668668,-2.39166 -2.200172,-0.209667c-0.687284,0.812679 -2.045108,1.787578 -3.231072,2.205905c-1.550172,0.580233 -2.04698,0.185692 -2.736136,-1.996238c-0.515476,-1.787452 -0.859144,-3.784697 -0.515476,-4.57359c0.171808,-0.99856 0.171808,-1.810168 -0.496808,-1.810168c-1.875172,0 -0.517348,-3.180679 1.70144,-3.78476zm14.650115,-45.77712c-1.032824,-0.208471 -1.875172,-0.788893 -2.218788,-1.601572c-0.17186,-1.184441 -0.343668,-1.184441 -0.343668,0c0,0.812679 -0.689156,1.3931 -1.357824,1.601572c-1.204632,0 -1.204632,0.208597 0.17186,0.998748c0.840424,0.394352 1.70144,0.997301 1.873248,0.997301c0.15314,0 1.014156,-0.602949 1.875172,-0.997301c1.529632,-0.998748 1.529632,-0.998748 0,-0.998748zm135.061516,32.058488c0.325,0.394541 0.668668,-0.209667 0.668668,-1.207157c0,-0.789963 -0.343668,-1.578981 -0.668668,-1.578981c-0.517296,0 -0.860964,0.394478 -0.860964,0.974774c0,0.604208 0.343668,1.416886 0.860964,1.811364zm-1.204632,1.787578c-0.171808,-0.604208 -1.014156,-1.393037 -1.703312,-1.393037c-0.496808,0 -0.840476,0.78883 -0.496808,1.393037c0.15314,0.603012 0.842296,0.997553 1.529632,0.997553c0.670488,0 0.842296,-0.394541 0.670488,-0.997553zm-1.529632,8.960104c0.515476,0 1.204632,-0.208471 1.204632,-0.394352c0,-0.418327 -0.689156,-0.812679 -1.204632,-1.207219c-0.670488,-0.394478 -1.186016,-0.185881 -1.186016,0.394541c0,0.604082 0.515528,1.207031 1.186016,1.207031zm1.357824,-18.918894c0.687284,-0.394667 1.032772,-0.998685 0.859144,-1.579107c-0.515528,-1.415628 -3.402984,-1.415628 -3.402984,0c0,1.579107 1.012336,2.182119 2.54384,1.579107zm-9.353343,-14.927047c-0.861016,0.604208 -1.376492,1.787578 -1.204736,2.39166c0.861016,1.577912 1.875224,1.183371 2.734316,-1.3931c0.842348,-2.39166 0.49868,-2.786012 -1.52958,-0.99856zm-3.251664,30.665451c4.437576,5.36242 4.609436,5.57108 4.609436,3.783628c0,-0.99749 -0.343668,-1.810168 -0.861016,-1.810168c-0.496756,0 -1.357772,-0.998748 -1.873248,-2.18193c-0.49686,-1.184629 -1.529632,-2.391849 -2.37198,-2.391849c-1.5483,0 -1.5483,0.20973 0.496808,2.60032zm-3.574792,-9.378557c1.031004,0 1.529684,-0.394352 0.859196,-0.580296c-0.515476,-0.394478 -1.357824,-0.394478 -1.8733,0c-0.5174,0.185944 0,0.580296 1.014104,0.580296zm-4.934384,-27.066634c0.515476,0.603138 2.045108,1.392031 3.40288,1.787641c2.3907,0.602949 2.562508,0.602949 1.204684,-0.99856c-1.5483,-1.973522 -5.793528,-2.576471 -4.607564,-0.789082zm-10.386219,-33.033073c-0.515476,0.580233 -0.687284,1.787452 -0.515476,2.576282c0.343668,1.601697 1.357824,0.20866 1.357824,-2.18193c0,-1.207219 -0.17186,-1.3931 -0.842348,-0.394352zm5.106244,42.992052c1.357824,0.997364 1.875172,0.997364 2.56438,-0.395611c1.357772,-2.182056 0.496756,-3.17942 -2.047032,-1.78739c-2.04698,0.975844 -2.04698,0.975844 -0.517348,2.183zm-3.40288,-9.958978c2.562456,-2.181742 2.562456,-2.181742 0.515476,-2.181742c-1.376492,0 -2.390648,0.788704 -2.906124,2.181742c-0.325,1.392031 -0.670488,2.182119 -0.49868,2.182119c0,0 1.357824,-1.184566 2.889328,-2.182119zm-3.748472,32.267148c1.184092,2.182119 3.231124,2.182119 2.562456,-0.208597c-0.171808,-0.789963 -0.345488,-1.787452 -0.345488,-1.997182c0,-0.185881 -0.687336,-0.185881 -1.529632,0.20973c-1.376492,0.394478 -1.376492,0.99749 -0.687336,1.996049zm-5.279924,-8.171337c1.357772,2.182056 2.04698,2.390527 3.576612,0.789019c1.014156,-0.99749 1.014156,-0.99749 0,-1.183371c-0.515476,0 -1.8733,-0.20973 -3.059264,-0.604208c-1.703312,-0.788893 -1.703312,-0.788893 -0.517348,0.99856zm-0.171808,-21.705221c0.860964,0 1.87512,-3.18049 1.357824,-4.17798c-0.668668,-0.99856 -2.04516,0.602949 -2.04516,2.390527c0,0.998623 0.343668,1.787452 0.687336,1.787452zm-8.337368,13.53382c-1.032824,0.812679 -0.860964,0.998748 0.49686,0.998748c0.860964,0 1.873248,-0.395736 2.218788,-0.998748c0.515424,-1.578793 -1.186016,-1.578793 -2.715648,0zm0.17186,17.526108c0.15314,0.20973 0.668616,-0.208597 1.185964,-1.183371c0.515424,-0.812679 2.04516,-1.811238 3.231072,-2.205779c1.529632,-0.603138 2.21884,-1.577849 2.21884,-2.994735c0,-3.365175 -2.390648,-2.367874 -4.934488,1.997245c-1.032772,2.204709 -1.873248,3.992288 -1.701388,4.38664zm-1.87512,-9.168827c1.52958,-2.181805 1.52958,-2.577541 0.324896,-3.180553c-1.357772,-0.789019 -2.370056,0.998748 -2.370056,4.178043c-0.17368,2.39166 -0.17368,2.39166 2.04516,-0.99749zm-2.734316,-23.49261c0.171808,1.601509 0.515476,1.393037 1.52958,-1.578981c1.204736,-3.179483 1.204736,-3.59781 0.17186,-3.59781c-0.668616,0 -1.357824,0.603138 -1.529632,1.60176c-0.343668,0.78883 -0.343668,2.600257 -0.171808,3.575031zm-0.842348,-16.318952c0,0.811609 0.324948,2.785068 0.670488,4.178043c0.515476,2.786138 0.515476,2.786138 1.032824,0.394478c0.668616,-2.390401 0,-5.965432 -1.032824,-5.965432c-0.49868,0 -0.670488,0.602823 -0.670488,1.392912zm-11.932647,6.56857c-0.842296,1.3931 -0.842296,2.786201 -0.17368,6.964181c0.34554,2.994672 1.206556,5.989407 1.703312,6.569829c0.861016,0.99856 1.032824,0 1.204632,-6.174218c0,-7.544602 -0.860964,-9.936074 -2.734264,-7.359791zm1.529632,21.102209c0.17186,0.394541 0.515476,-0.394478 0.343668,-1.578918c0,-1.207219 -0.171808,-1.3931 -0.515476,-0.603012c-0.153192,0.788893 -0.153192,1.787452 0.171808,2.18193zm6.139068,-18.710549c-0.171808,0.394541 -0.171808,3.180679 0.343668,6.174218c0.517348,5.177798 0.670488,5.386269 0.842348,1.602641c0.171808,-6.175288 -0.17186,-9.169897 -1.186016,-7.776859zm-5.7954,56.154299c1.032824,-2.39166 2.734316,-6.383948 3.92028,-8.775419c1.357772,-2.57666 2.218788,-5.965621 2.562456,-9.354771c0.49868,-5.362609 0.49868,-5.362609 0.49868,-5.362609c-2.04698,2.972019 -2.04698,2.972019 -2.04698,2.972019c-1.014156,1.601697 -1.701492,3.38915 -1.701492,3.992288c0,1.578856 -3.232944,11.537645 -4.2471,13.325224c-0.515476,0.997301 -1.376492,3.203269 -1.529632,4.782061c-0.861016,4.572647 0.670488,3.783628 2.543788,-1.578793zm-12.087659,20.498001c0.517348,3.969383 0.517348,3.969383 2.21884,-4.573653c1.014156,-4.596432 2.543788,-11.954839 3.576612,-16.528555c1.357772,-5.77974 1.87512,-10.561802 1.87512,-17.317322c0,-8.774538 -0.17368,-8.960419 -1.531452,-7.961671c-3.077984,2.576408 -4.781296,9.74906 -5.468632,23.677233c-0.324948,7.174036 -0.670488,14.346688 -1.014104,15.925669c-0.17186,1.601572 0,4.596306 0.343616,6.7783zm0.34554,-50.954981c0.668616,1.973459 1.357824,3.575031 1.357824,3.575031c0.171808,0 1.012232,-1.207219 1.70144,-2.786012c0.860964,-1.391968 2.218788,-2.993539 2.734316,-3.573961c2.02826,-1.811238 2.543736,-7.382318 0.842296,-11.165946c-1.357824,-3.38915 -5.106244,-7.17391 -5.795452,-5.966691c-0.343616,0.394478 -0.840424,4.179238 -1.185964,8.565878c-0.687284,6.56964 -0.687284,8.566759 0.34554,11.351701zm-1.032824,-45.592183c0.343668,0.395611 0.687284,0.185881 0.687284,-0.417068c0,-0.790088 -0.343616,-1.579107 -0.687284,-1.973522c-0.517348,-0.418264 -0.842348,-0.208597 -0.842348,0.580422c0,0.603012 0.325,1.3931 0.842348,1.810168zm-55.176989,53.531137c2.371928,0.209667 2.371928,0.209667 2.371928,0.209667c2.390648,0 4.781296,-2.577541 4.781296,-4.782061c0,-1.3931 -0.171808,-1.3931 -7.153224,4.572395zm1.014156,-5.571143c0,0.604396 0.343668,1.207219 0.861016,1.207219c0.840476,0 3.231072,-3.575031 2.715596,-4.17798c-0.517348,-0.812679 -3.576612,1.78739 -3.576612,2.97076zm1.87512,-13.719513c2.562508,3.970453 3.748472,4.364931 5.106244,1.78739c1.376492,-2.390401 0.17186,-3.992099 -3.9221,-4.572521c-3.402932,-0.604208 -3.402932,-0.604208 -1.184144,2.785131zm-1.87512,-11.164939c0,0.417068 1.204632,1.391842 2.562456,2.204521c6.29226,3.783691 7.496892,3.783691 7.325032,0.18607c0,-2.182119 -2.562456,-6.964307 -3.576612,-6.964307c-1.204632,0 -6.310876,3.783628 -6.310876,4.573716zm9.200203,28.273791c1.8733,0 2.045108,-0.603138 0.515476,-1.577912c-0.689156,-0.209667 -1.357824,0 -1.529632,0.580422c-0.34554,0.602823 0.171808,0.99749 1.014156,0.99749zm1.357824,-46.775742c-1.186016,-0.998685 -2.71752,-1.393037 -3.404804,-0.998685c-1.185964,0.790088 -1.014156,0.998685 0.687284,1.601509c0.842348,0.395736 2.56438,0.790151 3.404804,0.976032c1.014156,0 1.014156,-0.395611 -0.687284,-1.578856zm-0.15314,7.172652c1.012232,0 1.185964,-0.208597 0.496808,-0.811609c-0.496808,-0.185755 -1.186016,-0.185755 -1.529684,0.20866c-0.171808,0.394352 0.343668,0.789019 1.032876,0.602949zm1.012232,4.573779c-2.390596,0 -2.390596,0.185692 -1.012232,1.78739c1.70144,1.787452 2.198248,1.995924 2.887456,0.788893c1.185912,-1.577912 0.343616,-2.576282 -1.875224,-2.576282zm3.404856,-22.494239c-0.689208,-0.99856 -0.861016,0.789019 -0.515528,2.970949c0.171808,1.3931 0.859144,2.600131 1.204684,2.600131c0.668616,0 0.171808,-4.387709 -0.689156,-5.57108zm5.44986,26.277552c-0.343616,0.18607 0.517348,1.3931 1.531504,2.391786c1.032824,0.99749 1.873248,1.391905 1.873248,0.788893c0,-1.392912 -2.887404,-3.993169 -3.404752,-3.180679zm-4.263948,1.3931c-1.529632,1.393226 -0.668616,4.968068 1.548352,5.571206c1.185964,0.394415 3.061136,1.996112 4.2471,3.574905c1.032824,1.601697 1.873248,2.205905 1.873248,1.601697c0,-1.996049 -6.807684,-11.560487 -7.6687,-10.747808zm6.981416,16.528744c-1.014104,-3.204464 -2.20012,-4.782376 -4.41896,-5.780936c-1.70144,-0.788893 -3.404752,-1.207031 -3.920228,-0.997364c-0.517348,0.208471 1.529632,2.784942 4.437628,5.779614c5.44986,5.176728 5.44986,5.176728 3.90156,0.998685zm9.045191,-30.665576c-0.343668,0 -0.689208,0.789019 -0.689208,1.577912c0,0.99856 0.34554,1.601697 0.689208,1.601697c0.496808,0 0.842348,-0.603138 0.842348,-1.601697c0,-0.788893 -0.34554,-1.577912 -0.842348,-1.577912zm-1.5483,16.318952c0,1.392912 2.906124,0.394478 4.092088,-1.3931c1.701492,-2.994609 1.529632,-3.783628 -0.689156,-3.783628c-1.529632,0 -3.402932,2.786264 -3.402932,5.176728zm4.953104,-42.99224c-0.517348,2.576471 -0.861016,4.758402 -0.689156,4.968131c0.517296,0.789019 1.875172,-5.176602 1.875172,-7.568262c0,-0.99749 -0.5174,0.20973 -1.186016,2.600131zm8.854715,40.20604c-0.861016,0 -1.529684,0.395736 -1.529684,1.184441c0,0.603138 0.496808,0.998748 1.012284,0.998748c0.689156,0 1.357824,-0.395611 1.531504,-0.998748c0.343668,-0.788704 -0.17368,-1.184441 -1.014104,-1.184441zm-2.047032,37.420971c1.014156,3.598879 2.543788,6.964181 3.404804,7.776859c0.861016,0.603138 2.562456,3.389276 3.576612,6.175288c1.014156,2.785068 2.04698,4.967061 2.21884,4.967061c0.840424,0 -0.861016,-18.315001 -2.04698,-23.887151c-1.032876,-4.780992 -1.357876,-9.168827 -1.186016,-16.133008c0.15314,-5.176602 0,-9.750319 -0.343616,-10.144734c-0.17186,-0.394478 -1.357824,-0.394478 -2.390648,0c-1.875172,0.788893 -2.04698,1.3931 -2.04698,5.78081c0,3.365364 -0.34372,5.176728 -1.186016,5.965432c-2.390596,1.787641 -2.218788,11.932312 0,19.499442zm-4.934384,-26.67203c-0.343668,-2.994672 -0.687284,-3.38915 -2.562456,-3.38915c-2.21884,0 -2.21884,0.208597 -2.04698,4.38664c0,2.577541 0.345488,5.57215 0.517296,6.964118c0.17186,1.3931 0.842348,2.786012 1.529684,2.994672c1.357772,0.998685 2.887404,-5.965432 2.562456,-10.95628zm-2.562456,20.102391c-1.529684,-2.39059 -2.562456,-4.967061 -2.715648,-5.57108c0,-0.788893 -0.860964,-2.784942 -1.8733,-4.572521c-1.032824,-1.787452 -2.218788,-3.993232 -2.736136,-4.78225c-1.70144,-2.786012 -1.357824,-0.394352 0.517348,5.77974c1.185964,4.17905 3.231124,7.96274 5.62172,11.14323c4.418908,5.385199 4.934436,4.386828 1.186016,-1.997119zm-2.715648,9.772909c1.854632,0 1.701492,-0.208471 -0.860964,-3.388961c-1.701492,-1.996238 -2.887456,-4.178169 -2.887456,-5.176791c0,-0.78883 -2.21884,-3.597747 -4.781244,-6.174218c-2.54384,-2.600068 -4.934488,-5.176539 -5.278104,-5.966502c-0.34554,-0.99749 -0.517348,-0.99749 -0.517348,0.185881c0,1.207219 -0.840476,1.392912 -3.576612,0.788893c-1.8733,-0.394541 -3.402932,-0.394541 -3.402932,-0.184811c0,0.394478 0.687284,2.785068 1.376492,5.176539c1.186016,3.969572 1.70144,4.782376 5.449912,6.360162c2.37198,0.99856 6.120348,3.389087 8.510996,5.176539c2.21884,1.811427 4.934436,3.203269 5.96726,3.203269zm-26.584582,6.755521c0.689156,0 1.703312,-0.394352 2.390596,-0.998371c1.186016,-1.392031 0.173732,-1.392031 -2.045108,0c-1.014156,0.604019 -1.185964,0.7899 -0.345488,0.998371zm-1.8733,-4.968068c1.701492,-0.811483 7.153224,-1.601572 12.106327,-1.601572c9.351523,-0.185881 11.226643,-0.788704 7.478172,-1.996049c-1.185912,-0.394352 -3.90156,-1.3931 -6.120348,-2.39059c-3.92028,-1.787452 -11.934519,-1.184441 -12.774995,0.811798c-0.17368,0.395422 -1.032824,0.604019 -1.87512,0.395422c-1.701492,-0.604082 -3.404804,0.997616 -3.92028,4.178169c-0.689156,2.576282 0.515476,2.786012 5.106244,0.602823zm-13.617291,4.573716c0.343668,1.601697 2.04698,1.787452 3.404804,0.394352c0.840424,-0.78883 0.840424,-1.183182 0,-2.390401c-0.689156,-1.184629 -1.185964,-1.184629 -2.218788,-0.185881c-0.689156,0.580422 -1.186016,1.577912 -1.186016,2.18193zm-5.449912,13.928361c0.668668,0 1.012336,0.603138 0.668668,1.787578c-0.153192,0.812679 -0.668668,1.601572 -1.014156,1.601572c-0.515476,0 -0.840476,-0.788893 -0.840476,-1.601572c0,-0.974774 0.496808,-1.787578 1.185964,-1.787578z"
              fill-opacity="null" stroke-opacity="null" stroke-width="1.5" fill="white"/>
    </g>
</svg>
