<svg width="200" height="200" xmlns="http://www.w3.org/2000/svg">
    <!-- Created with Method Draw - http://github.com/duopixel/Method-Draw/ -->
    <g>
        <title>background</title>
        <rect fill-opacity="0" id="canvas_background" height="202" width="202" y="-1" x="-1"/>
        <g display="none" overflow="visible" y="0" x="0" height="100%" width="100%" id="canvasGrid">
            <rect fill="url(#gridpattern)" stroke-width="0" y="0" x="0" height="100%" width="100%"/>
        </g>
    </g>
    <g>
        <title>Layer 1</title>
        <path id="svg_29"
              d="m66.621468,151.33165c-2.537321,5.949431 -4.313848,9.072341 -12.94512,12.1913c-1.525214,0.850054 0.506103,2.834533 1.525214,2.549939c7.612162,-3.399881 9.388639,-6.238086 12.94512,-12.476005c1.776527,7.941755 5.835635,13.045138 12.69038,16.164097l0.50953,-1.70378c9.392116,5.672682 16.498174,6.807385 22.588599,5.388144c5.839062,-1.41913 12.69038,-2.549828 18.278128,-1.699774c-3.553054,-3.119238 -5.587748,-6.80733 -6.345215,-11.34158c5.835684,-6.807107 17.259068,-4.253496 22.843389,-8.222565l-1.270424,-3.122854c12.184277,-4.534306 22.592026,-11.906873 37.058933,-9.637689l-23.859023,-19.283224l0.506103,-2.553778c-7.106059,-5.953325 -15.227751,-7.372567 -24.368504,-3.399714c3.046901,-9.926234 0,-20.698682 8.37986,-28.355564c-2.031267,-4.253607 0,-10.206988 3.553054,-15.595132c0.50958,-10.206933 3.043474,-19.281332 7.612162,-27.503953c-7.360799,5.388144 -14.71822,10.206933 -22.333809,14.462487l-1.270424,-3.120907c-3.043474,5.389924 -7.360849,9.358938 -13.19991,11.624171l-1.015634,-3.11896c-7.870379,8.791697 -17.259068,13.325948 -23.098179,26.090331c1.776527,-12.479789 -1.525164,-24.671201 -6.093802,-34.595542l-1.776527,1.986371c-3.298264,-12.193303 -14.97301,-20.133166 -22.333809,-30.057453c3.043474,27.221028 -5.842538,30.622801 -5.584371,45.652585l-3.050328,0.280643c4.317325,15.314322 -1.521787,22.402295 1.270424,32.893877c-7.106059,-3.969069 -16.246861,-1.134648 -22.337286,-7.372623c7.360799,13.045304 9.901646,28.92108 22.337286,39.6972l-1.776527,0.850054c4.568638,5.668787 10.40775,10.491582 20.560709,13.329898z"
              fill-opacity="null" stroke-opacity="null" stroke-width="1.5" stroke="#000" fill="white"/>
    </g>
</svg>
