<svg width="200" height="200" xmlns="http://www.w3.org/2000/svg">
    <!-- Created with Method Draw - http://github.com/duopixel/Method-Draw/ -->
    <g>
        <title>background</title>
        <rect fill-opacity="0" id="canvas_background" height="202" width="202" y="-1" x="-1"/>
        <g display="none" overflow="visible" y="0" x="0" height="100%" width="100%" id="canvasGrid">
            <rect fill="url(#gridpattern)" stroke-width="0" y="0" x="0" height="100%" width="100%"/>
        </g>
    </g>
    <g>
        <title>Layer 1</title>
        <path id="svg_38"
              d="m101.149557,41.335852c-3.336491,1.29456 -6.381108,3.020427 -9.450048,4.558713c-1.045884,0.523821 -2.234057,1.356448 -3.203324,1.611022c-2.469989,0.646323 -6.334895,-0.484264 -9.483492,-0.602299c-7.869668,-0.292855 -12.964704,0.314548 -19.433983,1.337946c-3.027591,0.477883 -6.162202,0.925779 -8.819477,1.743094c-2.269933,0.698641 -4.872481,2.259897 -7.412398,3.572959c-4.013884,2.075507 -6.747776,4.029788 -9.877522,6.532135c-5.231244,4.179724 -8.524562,9.441545 -12.352376,15.222721c-1.67159,2.523403 -4.078947,6.283304 -4.198737,9.269277c-2.212774,3.518727 -5.574805,5.666969 -6.4182,10.817772c1.179052,3.012132 4.234614,0.333689 6.075856,-0.669292c1.522612,-0.831989 3.160759,-1.826037 4.51007,-2.224805c7.012895,-2.074231 16.785829,0.890688 23.61387,-1.009999c2.420127,-0.67312 4.516759,-2.032121 6.921076,-2.607622c2.283311,-0.548066 4.029693,0.422375 5.657502,1.159936c0.864678,0.393026 1.77557,0.925141 2.561199,1.348154c5.087131,2.758197 10.171829,5.682281 17.001694,6.783519c5.48177,0.882393 10.24419,-0.801364 14.700142,-1.711192c1.131014,-0.231604 2.592211,-0.147385 3.450201,-1.160574c-3.556613,-0.842836 -6.508195,-2.280314 -10.222299,-3.814772c-4.878562,-2.013618 -8.668067,-3.375809 -10.511742,-7.418357c2.183587,-0.599747 4.712558,-0.155041 6.985532,0.262868c2.48215,0.454276 4.94545,0.881117 7.327268,1.292008c10.056904,1.737351 17.631049,4.65378 25.286676,8.437288c3.718969,1.835608 7.146063,4.393464 10.298308,6.54043c6.455901,4.402396 11.966858,9.869024 17.164658,15.824382c2.352631,2.696308 4.454128,6.072755 7.005598,9.29097c1.115204,1.406853 2.236489,2.976403 3.42831,4.713754c1.138919,1.65058 2.876789,3.673768 3.117585,5.117626c0.2712,1.594433 -0.535711,3.342631 -0.941904,5.085087c-0.702323,3.026807 -1.220401,6.273734 -0.985077,9.38157c0.307684,4.019579 1.16385,7.934522 2.958879,10.979832c0.77894,-0.726714 1.096962,-2.005961 1.49829,-3.177382c1.967721,-2.638886 4.585471,-5.274581 4.650535,-9.666131c5.374749,2.914514 15.814738,2.670149 22.082745,2.594224c1.884415,-0.022969 3.804099,0.186304 5.36502,-0.58252c-3.292102,-2.002133 -5.70858,-4.535744 -8.570167,-7.122312c-4.329473,-3.907924 -7.910409,-7.200151 -14.292734,-9.29097c-2.068661,-0.677586 -4.437102,-1.044453 -5.570548,-2.300093c-0.871367,-0.960871 -1.136487,-3.089334 -1.578555,-5.139319c-1.188781,-5.542553 -2.7345,-11.423261 -4.113607,-16.087888c-4.138538,-14.021313 -10.455191,-26.482647 -18.859355,-36.160263c-4.258937,-4.907715 -9.344851,-8.904325 -14.828445,-13.348193c-0.937039,-1.541477 -2.692543,-3.620811 -3.054954,-5.971308c-0.370924,-2.420042 0.297955,-4.544039 1.723276,-6.169735c3.118193,-2.387502 8.01743,-2.651646 10.135953,-6.225244c-2.769768,-2.092095 -6.206591,-2.705241 -9.578959,-3.047224c-7.285311,-0.739475 -14.11092,-0.165249 -19.762342,2.030207z"
              fill-opacity="null" stroke-opacity="null" stroke-width="1.5" stroke="#000" fill="white"/>
    </g>
</svg>
