<svg width="200" height="200" xmlns="http://www.w3.org/2000/svg">
    <!-- Created with Method Draw - http://github.com/duopixel/Method-Draw/ -->
    <g>
        <title>background</title>
        <rect fill-opacity="0" id="canvas_background" height="202" width="202" y="-1" x="-1"/>
        <g display="none" overflow="visible" y="0" x="0" height="100%" width="100%" id="canvasGrid">
            <rect fill="url(#gridpattern)" stroke-width="0" y="0" x="0" height="100%" width="100%"/>
        </g>
    </g>
    <g>
        <title>Layer 1</title>
        <path stroke="#000" id="svg_21"
              d="m100.000003,153.999997l0,0c-31.20409,0 -56.500002,-24.176613 -56.500002,-53.999996l0,0c0,-29.823375 25.295912,-53.999996 56.500002,-53.999996l0,0c14.984733,0 29.355729,5.689269 39.951531,15.816229c10.595806,10.126967 16.548471,23.862073 16.548471,38.183766l0,0c0,14.32169 -5.952666,28.056799 -16.548471,38.183759l16.548471,0l0,15.816236l-56.500002,0z"
              fill-opacity="null" stroke-opacity="null" stroke-width="1.5" fill="white"/>
    </g>
</svg>
