<svg width="200" height="200" xmlns="http://www.w3.org/2000/svg">
    <!-- Created with Method Draw - http://github.com/duopixel/Method-Draw/ -->
    <g>
        <title>background</title>
        <rect fill-opacity="0" id="canvas_background" height="202" width="202" y="-1" x="-1"/>
        <g display="none" overflow="visible" y="0" x="0" height="100%" width="100%" id="canvasGrid">
            <rect fill="url(#gridpattern)" stroke-width="0" y="0" x="0" height="100%" width="100%"/>
        </g>
    </g>
    <g>
        <title>Layer 1</title>
        <path id="svg_27"
              d="m27.166665,170.691339c0,-0.999288 1.118785,-1.808695 2.5,-1.808695c1.381215,0 2.5,0.809407 2.5,1.808695c0,0.999256 -1.118785,1.808663 -2.5,1.808663c-1.381215,0 -2.5,-0.809407 -2.5,-1.808663zm5.125,-12.995444c0,-2.498274 2.79696,-4.521821 6.250005,-4.521821c3.45304,0 6.25,2.023547 6.25,4.521821c0,2.498161 -2.79696,4.52174 -6.25,4.52174c-3.453045,0 -6.250005,-2.023547 -6.250005,-4.52174zm11.875005,-19.702919c0,-6.907063 9.733425,-12.501734 21.75001,-12.501734c12.01655,0 21.74998,5.594671 21.74998,12.501734c0,6.907015 -9.73343,12.501637 -21.74998,12.501637c-12.016585,0 -21.75001,-5.594622 -21.75001,-12.501637zm-18.66667,-56.593947c0,-29.778459 33.33978,-53.899028 74.5,-53.899028c41.160235,0 74.5,24.12057 74.5,53.899028c0,29.778491 -33.339765,53.899028 -74.5,53.899028c-41.16022,0 -74.5,-24.120537 -74.5,-53.899028z"
              fill-opacity="null" stroke-opacity="null" stroke-width="1.5" fill="white"/>
    </g>
</svg>
